<?xml version="1.0" encoding="UTF-8"?>
<svg xmlns="http://www.w3.org/2000/svg" viewBox="0 0 512 512">
  <defs>
    <style>
      .cls-1 {
        fill: #7c29ff;
      }

      .cls-2 {
        fill: #fff;
      }
    </style>
  </defs>
  <g id="BG">
    <rect class="cls-1" width="512" height="512" rx="80" ry="80"/>
  </g>
  <g id="Layer_2">
    <g>
      <path class="cls-2" d="M307.72,217.36l-72.49,122.72c-10.5,17.77-29.6,28.68-50.25,28.68h-70.78c-4.74,0-7.68-5.14-5.28-9.22L249.91,119.16c2.11-3.61,7.33-3.61,9.45,0l48.38,82.24c2.9,4.93,2.9,11.05-.02,15.97Z"/>
      <path class="cls-2" d="M398.13,368.76h-68.4c-34.24,0-54.95-37.87-36.47-66.7l34.99-54.58c2.21-3.45,7.29-3.34,9.34.19l65.55,112.37c2.26,3.86-.53,8.72-5.01,8.72Z"/>
    </g>
  </g>
</svg>
